<svg xmlns="http://www.w3.org/2000/svg" width="18.599" height="20" viewBox="0 0 18.599 20">
  <path id="Restaurant" d="M13.832,20H4.909a.769.769,0,0,1-.765-.771A3.83,3.83,0,0,0,2.8,16.748,8.693,8.693,0,0,1,.137,10.21a.772.772,0,0,1,.771-.771h.961a3.381,3.381,0,0,1-.184-2.29,3.277,3.277,0,0,1,.956-1.6L.1,1.153A.764.764,0,0,1,.389.1.737.737,0,0,1,.765,0a.777.777,0,0,1,.668.382l2.531,4.4a3.422,3.422,0,0,1,1-.15,3.324,3.324,0,0,1,.87.116A3.364,3.364,0,0,1,7.893,6.332a6.38,6.38,0,0,1,.665,1.889A8.174,8.174,0,0,1,8.7,9.439h7.415a2.3,2.3,0,0,0-2.3-2.28c-.085,0-.174,0-.247.006a1.855,1.855,0,0,0-.218.039.464.464,0,0,1-.132.019.454.454,0,0,1-.437-.326A3.23,3.23,0,0,0,9.674,4.591a3.3,3.3,0,0,0-1.547.384.426.426,0,0,1-.215.058.469.469,0,0,1-.4-.243.46.46,0,0,1-.033-.351A.451.451,0,0,1,7.7,4.171a4.154,4.154,0,0,1,4.454.319,4.2,4.2,0,0,1,1.38,1.759l.1-.007c.062,0,.126-.01.19-.01a3.224,3.224,0,0,1,3.218,3.207h.8a.769.769,0,0,1,.766.771v.023a8.666,8.666,0,0,1-2.649,6.515,3.808,3.808,0,0,0-1.346,2.48A.772.772,0,0,1,13.832,20ZM1.707,10.982h0A7.3,7.3,0,0,0,3.944,15.72l0,.005a5.841,5.841,0,0,1,1.665,2.732h7.519a5.8,5.8,0,0,1,1.643-2.714l.017-.019.006-.007a7.3,7.3,0,0,0,2.235-4.737H1.707ZM4.96,6.169a1.857,1.857,0,0,0-1.795,1.37,1.948,1.948,0,0,0,.531,1.9H7.166a5.669,5.669,0,0,0-.122-.922,4.912,4.912,0,0,0-.475-1.425,1.871,1.871,0,0,0-1.134-.86A1.837,1.837,0,0,0,4.96,6.169Z" transform="translate(0 0)" fill="#88a8ff"/>
</svg>
