<svg xmlns="http://www.w3.org/2000/svg" width="24.442" height="18" viewBox="0 0 24.442 18">
  <path id="Icon" d="M15.8,18a3.2,3.2,0,0,1-1.184-.235,3.279,3.279,0,0,1-1.015-.684l-.021-.029a2.193,2.193,0,0,0-.614-.4h-.014a1.792,1.792,0,0,0-.741-.15,1.949,1.949,0,0,0-1.367.578,3.472,3.472,0,0,1-1,.684,3.256,3.256,0,0,1-1.2.235,3.309,3.309,0,0,1-1.157-.221l-.035-.014a3.366,3.366,0,0,1-1.015-.684,1.766,1.766,0,0,0-.642-.427,1.893,1.893,0,0,0-.733-.15.587.587,0,0,1,0-1.174,3.1,3.1,0,0,1,1.183.235h.007a3.586,3.586,0,0,1,1,.684,2.047,2.047,0,0,0,.634.427l.028.014a2.006,2.006,0,0,0,.727.143,1.792,1.792,0,0,0,.739-.157,1.911,1.911,0,0,0,.635-.427,3.5,3.5,0,0,1,1.008-.684,3.133,3.133,0,0,1,2.347-.013l.035.013a3.1,3.1,0,0,1,.979.655l.035.029a2,2,0,0,0,.628.427,1.871,1.871,0,0,0,.747.157,1.958,1.958,0,0,0,.726-.143l.021-.014a1.855,1.855,0,0,0,.642-.427,3.368,3.368,0,0,1,1-.684,3.208,3.208,0,0,1,1.206-.235.587.587,0,0,1,0,1.174,1.99,1.99,0,0,0-.755.15,1.876,1.876,0,0,0-.641.427,3.329,3.329,0,0,1-1.008.684l-.035.014A3.223,3.223,0,0,1,15.8,18Zm6.28-3.155a2.815,2.815,0,0,1-1.2-.256,2.661,2.661,0,0,1-1.008-.677l-.035-.021a1.878,1.878,0,0,0-.592-.4l-.028-.014a2.075,2.075,0,0,0-.733-.136,1.954,1.954,0,0,0-.741.15,1.87,1.87,0,0,0-.635.419,2.755,2.755,0,0,1-1.008.677l-.049.028a3,3,0,0,1-1.149.229,2.879,2.879,0,0,1-1.192-.256,2.807,2.807,0,0,1-1-.677,2.041,2.041,0,0,0-.642-.419l-.021-.014a1.984,1.984,0,0,0-.726-.136,2.011,2.011,0,0,0-.748.15,1.842,1.842,0,0,0-.6.4l-.028.021a2.872,2.872,0,0,1-1.008.677H8.931a2.837,2.837,0,0,1-1.192.256,3.076,3.076,0,0,1-1.148-.229l-.029-.028a2.84,2.84,0,0,1-1.022-.677,1.948,1.948,0,0,0-.634-.419,1.915,1.915,0,0,0-.747-.15,2.031,2.031,0,0,0-.726.136l-.013.014a1.989,1.989,0,0,0-.635.419,2.873,2.873,0,0,1-1.008.677H1.769a2.784,2.784,0,0,1-1.184.256.593.593,0,0,1-.585-.6.581.581,0,0,1,.585-.576,1.713,1.713,0,0,0,.741-.158,1.811,1.811,0,0,0,.627-.42H1.96a2.969,2.969,0,0,1,1.015-.684l.034-.022a2.983,2.983,0,0,1,1.149-.22,3.078,3.078,0,0,1,1.192.242,2.91,2.91,0,0,1,1.015.684,2.117,2.117,0,0,0,.635.42l.028.014a1.773,1.773,0,0,0,.711.143,1.692,1.692,0,0,0,.748-.158,2.238,2.238,0,0,0,.635-.42l.042-.035a2.8,2.8,0,0,1,.979-.649,2.983,2.983,0,0,1,1.178-.242,3.013,3.013,0,0,1,1.163.22l.028.022a2.887,2.887,0,0,1,1.008.684,2.253,2.253,0,0,0,.642.42,1.748,1.748,0,0,0,.741.158,1.936,1.936,0,0,0,.733-.143l.014-.014a2.128,2.128,0,0,0,.634-.42,2.9,2.9,0,0,1,1.015-.684,3.06,3.06,0,0,1,1.184-.242,2.946,2.946,0,0,1,1.155.22l.035.022a2.855,2.855,0,0,1,.98.649l.028.035a2.229,2.229,0,0,0,.635.42,1.864,1.864,0,0,0,1.466.014l.028-.014a1.972,1.972,0,0,0,.635-.42.57.57,0,0,1,.412-.176.55.55,0,0,1,.406.176.582.582,0,0,1,.179.424.542.542,0,0,1-.179.4,2.734,2.734,0,0,1-1.008.677l-.035.028A3.089,3.089,0,0,1,22.077,14.845ZM8.688,12.612a.974.974,0,0,1-.849-.481,1,1,0,0,1-.094-.756.953.953,0,0,1,.453-.584L12.71,8.157,10.679,4.6l-.028-.057a.97.97,0,0,1-.105-.74A.959.959,0,0,1,11,3.213L16.284.136A.938.938,0,0,1,16.771,0,.966.966,0,0,1,17.6.485a.982.982,0,0,1-.346,1.338L12.794,4.409l3.356,5.884A.919.919,0,0,1,16.26,11a.981.981,0,0,1-.464.615.933.933,0,0,1-.476.13.985.985,0,0,1-.842-.493l-.811-1.41-4.5,2.65A1.024,1.024,0,0,1,8.688,12.612Zm9.59-2.2A2.956,2.956,0,1,1,21.21,7.458,2.94,2.94,0,0,1,18.278,10.407Zm0-3.953a.994.994,0,0,0-.98,1,.976.976,0,1,0,.98-1Z" fill="#8089bc"/>
</svg>
