<svg xmlns="http://www.w3.org/2000/svg" width="21.47" height="20" viewBox="0 0 21.47 20">
  <path id="Home" d="M17.546,20H3.925a.829.829,0,0,1-.829-.828V11.1a.843.843,0,0,1,.829-.834.832.832,0,0,1,.828.834v7.246H7.407V10.2A.5.5,0,0,1,7.9,9.7h5.661a.5.5,0,0,1,.492.492v8.152h2.666V11.1a.823.823,0,1,1,1.645,0v8.069A.817.817,0,0,1,17.546,20ZM8.4,10.689v7.66h4.67v-7.66Zm12.25.871a.815.815,0,0,1-.585-.248L10.733,1.99,1.409,11.313a.831.831,0,0,1-.588.248A.83.83,0,0,1,0,10.728a.8.8,0,0,1,.238-.573L10.157.243A.809.809,0,0,1,10.738,0a.794.794,0,0,1,.577.243l.018.012,9.9,9.9a.8.8,0,0,1,.238.573.83.83,0,0,1-.823.833Z" transform="translate(0)" fill="#fff"/>
</svg>
