<?xml version="1.0" encoding="UTF-8"?>
<svg id="Livello_1" data-name="Livello 1" xmlns="http://www.w3.org/2000/svg" version="1.1" viewBox="0 0 723.73 1384.82">
  <defs>
    <style>
      .cls-1 {
        fill: #D7DCEA;
        stroke-width: 0px;
      }
    </style>
  </defs>
  <g>
    <path class="cls-1" d="M-1144-298.33c-6.12-2.97-12.19-5.92-18.09-8.97-27,.8-53.92.06-80.96-1.99,5.16,3.87,10.22,7.53,15.14,10.97,27.97,1.55,55.87,1.47,83.9,0Z"/>
    <path class="cls-1" d="M-1186.45-285.55c-14.23,0-28.28-.39-42.08-1.16l-3.32-.18-2.71-1.89c-5.02-3.52-10.21-7.25-15.48-11.23l-31.78-23.94,39.67,3.02c27.05,2.09,53.81,2.75,79.73,1.98l3.02-.09,2.71,1.41c5.23,2.73,10.62,5.34,16.05,8l40.54,19.71-43.29,3.21c-14.46.77-28.83,1.16-43.06,1.16Z"/>
  </g>
  <g>
    <path class="cls-1" d="M-1001.46-251.46c-63.21,6.28-122.65,10.45-178.75,12.53.27,2.94.71,6.23,1.27,9.75,66.98-2.51,138.84-8.06,215.95-16.52-11.88-1.74-24.47-3.61-38.47-5.76Z"/>
    <path class="cls-1" d="M-1188.77-217.14l-1.64-10.16c-.61-3.82-1.09-7.37-1.39-10.55l-1.14-12.23,12.3-.48c55.63-2.07,115.51-6.27,178.01-12.46l1.48-.16,1.43.23c13.98,2.14,26.55,4,38.4,5.73l90.26,13.14-90.67,9.96c-77.59,8.5-150.53,14.1-216.77,16.6l-10.28.39Z"/>
  </g>
  <g>
    <path class="cls-1" d="M-377.54-.68C-217.81-37.66-92.74,5.18,28.23,46.6c90.07,30.84,181.82,62.26,289.19,62.26,86.15-.01,182.37-20.25,295.79-77.24,117.67-59.13,189.19-68.19,277.5-59.19,4.79-2.69,9.42-5.44,13.86-8.37-96.09-11.45-169.94-4.43-295.76,58.8C357.7,149.04,191.82,92.26,31.4,37.32-90.87-4.54-217.31-47.82-379.75-10.23"/>
    <path class="cls-1" d="M-382.37-21.58C-216.68-59.91-88.66-16.08,35.17,26.32c158.1,54.13,321.6,110.15,568.41-13.87h0c129.75-65.23,206.34-71.41,302.35-59.95l31.53,3.75-26.49,17.51c-4.66,3.09-9.55,6-14.6,8.82l-3.21,1.8-3.66-.39c-81.89-8.25-152.57-1.55-271.09,58.02-105.08,52.81-203.54,78.48-301.01,78.48-109.29,0-202.63-31.96-292.89-62.86C-94.94,16.73-218.32-25.53-374.94,10.66"/>
  </g>
  <g>
    <path class="cls-1" d="M-248.12,130.5c111.04,33.43,224.61,62.47,366.89,62.47,85.61,0,181.63-10.52,293.73-36.9,54.06-12.73,107.03-28.93,158.25-44.59,48.44-14.81,95.98-29.27,143.79-40.91l.57-10.25c-48.99,11.83-97.63,26.63-147.22,41.79-51.07,15.61-103.89,31.76-157.64,44.41-296.07,69.7-479.04,27.76-655.55-25.42"/>
    <path class="cls-1" d="M-241.92,109.97c174.9,52.68,356.23,94.24,649.53,25.24h0c52.9-12.46,105.08-28.4,155.53-43.81,49.31-15.07,98.92-30.21,149.25-42.38l15.21-3.66-1.91,34.47-8.39,2.05c-48.52,11.84-96.62,26.53-143.14,40.76-51.31,15.69-104.37,31.92-158.98,44.76-106.35,25.05-203.32,37.22-296.41,37.22-148.73,0-269.09-32.51-370.26-62.97"/>
  </g>
  <g>
    <path class="cls-1" d="M-144.99,267.83c87.28,15.01,164.47,21.24,234.37,21.23,172.73,0,300.82-37.98,425.87-75.06,65.02-19.28,128.71-38.13,197.03-51.27v-10.04c-69.35,13.24-133.91,32.37-199.82,51.92-174.57,51.76-355.09,105.27-655.79,53.57"/>
    <path class="cls-1" d="M-141.36,246.69h0c298.14,51.33,477.27-1.86,650.51-53.24,64.27-19.05,130.72-38.76,200.95-52.2l13.82-2.64v33.74l-9.43,1.82c-68.23,13.12-133.13,32.37-195.9,50.99-125.34,37.15-254.83,75.55-429.18,75.55-75.25,0-152.57-7-236.37-21.39"/>
  </g>
  <g>
    <path class="cls-1" d="M-373.99,364.23c121.19-12.17,272.02-27.25,614.84-1.59,163,12.23,250.83-15.08,343.82-43.96,40-12.42,80.46-24.94,127.59-34.88v-9.78c-49.43,10.13-90.79,22.97-130.5,35.3-92.07,28.58-178.98,55.63-340.18,43.54-343.65-25.72-494.96-10.57-616.54,1.6"/>
    <path class="cls-1" d="M-376.12,342.9c121.99-12.25,273.84-27.4,618.56-1.66h0c158.85,11.87,244.67-14.73,335.59-42.95,40.65-12.62,82.05-25.46,131.88-35.69l13.98-2.86v33.49l-9.23,1.96c-47.4,10-87.64,22.53-126.54,34.62-94.19,29.21-183.01,56.65-348.14,44.45-342.11-25.62-492.18-10.57-612.81,1.55"/>
  </g>
  <g>
    <path class="cls-1" d="M-241.89,455.31c191.42-30.71,389.34-62.47,546.72-16.53,85.72,25.01,203.99-2.34,318.38-28.8,29.63-6.85,59.5-13.65,89.03-19.7v-10.02c-30.27,6.18-60.89,13.15-91.25,20.17-113.15,26.16-230.14,53.26-313.42,28.93-159.49-46.54-358.53-14.6-551.01,16.26"/>
    <path class="cls-1" d="M-245.28,434.12c193.77-31.06,394.13-63.18,556.11-15.94l.02.02c80.21,23.42,195.63-3.21,307.19-29.03,30.78-7.12,61.5-14.12,91.85-20.32l13.98-2.84v33.78l-9.3,1.91c-29.44,6.02-59.2,12.8-88.76,19.62-115.79,26.78-235.55,54.49-324.24,28.65-154.89-45.26-351.48-13.66-541.61,16.82"/>
  </g>
  <g>
    <path class="cls-1" d="M-245.11,543.06c155.73-53.95,319.4-33.74,477.68-14.18,32,3.94,65.09,8.03,97.07,11.33,90.59,9.37,191.18-11.17,288.43-31.03,31.24-6.38,62.78-12.7,94.15-18.16v-9.95c-32.04,5.54-64.23,12-96.12,18.51-96.52,19.71-196.35,40.11-285.45,30.88-31.9-3.29-64.93-7.37-96.88-11.31-159.42-19.71-324.23-40.04-482.09,14.64"/>
    <path class="cls-1" d="M-252.13,522.78c160.55-55.59,326.7-35.03,487.34-15.19,31.87,3.93,64.82,8,96.64,11.3h0c87.28,9.03,186.13-11.14,281.68-30.69,32.24-6.57,64.54-13.05,96.71-18.62l13.62-2.34v33.58l-9.64,1.66c-31.26,5.46-62.7,11.75-93.83,18.12-98.26,20.05-199.59,40.81-291.96,31.19-32.06-3.32-65.23-7.39-97.3-11.37-156.98-19.42-319.31-39.44-472.43,13.64"/>
  </g>
  <g>
    <path class="cls-1" d="M-157.57,641.52c88.51-17.04,179.99-34.66,268.03-28.98,55.77,3.61,105.89,9.04,154.36,14.27,130.44,14.12,243.08,26.31,380.81-9.41,22.21-5.76,44.39-10.92,66.58-15.64v-10.08c-23,4.86-46,10.25-69.04,16.22-136,35.27-247.82,23.16-377.29,9.17-48.58-5.26-98.8-10.69-154.78-14.31-89.27-5.82-181.4,11.98-270.52,29.13"/>
    <path class="cls-1" d="M-161.62,620.45c90.46-17.39,183.06-35.28,273.47-29.3,56.11,3.61,106.38,9.05,154.98,14.32l.45.05c128.31,13.87,239.12,25.85,372.94-8.89,23.3-6.02,46.7-11.5,69.59-16.32l14.03-2.96v33.83l-9.21,1.98c-22.03,4.68-44.06,9.82-66.11,15.53-139.77,36.26-253.45,23.94-384.97,9.71-49.49-5.34-98.96-10.69-153.85-14.23-86.62-5.55-177.33,11.91-265.09,28.8"/>
  </g>
  <g>
    <path class="cls-1" d="M-34.45,727.46c83-16.59,142.96-28.57,203.59-16.9,233.65,45.02,317.5,35.45,543.05-4.17v-9.95c-225.43,39.61-308.73,49.28-541.19,4.5-62.51-12.05-123.27.11-207.36,16.91"/>
    <path class="cls-1" d="M-38.65,706.43c85.53-17.1,147.16-29.44,211.84-16.94h0c232.71,44.86,314.24,34.58,536.97-4.52l13.66-2.41v33.6l-9.62,1.68c-221.09,38.85-309.62,49.97-547.27,4.16-58.5-11.32-117.42.55-199.11,16.87"/>
  </g>
  <g>
    <path class="cls-1" d="M-349.59,849.09c164.23-22.26,319.34-43.29,440.92.41,94.31,33.92,208.64,9.11,319.23-14.86,81.9-17.76,166.55-36.06,239.28-28.9,21.38,2.13,42.02,2.79,62.32,2.86v-9.83c-20-.07-40.33-.7-61.36-2.78-74.33-7.39-159.7,11.16-242.33,29.08-109.22,23.69-222.15,48.16-313.83,15.22-123.82-44.53-280.09-23.32-445.56-.91"/>
    <path class="cls-1" d="M-352.48,827.86c167.15-22.64,324.67-43.97,451.06,1.46,88.6,31.85,199.84,7.71,307.42-15.62,83.8-18.16,169.83-36.97,245.97-29.28h0c17.98,1.77,37.13,2.66,60.25,2.73l11.59.05v33.1l-11.69-.05c-24.14-.09-44.31-1-63.43-2.93-70.91-6.98-154.71,11.14-235.67,28.69-112.17,24.35-228.19,49.49-325.63,14.46-118.86-42.74-272.61-21.89-435.35.16"/>
  </g>
  <g>
    <path class="cls-1" d="M-177,938.55c258.04,44.16,462.83,13.32,660.88-16.51,77.07-11.61,151.91-22.75,228.28-29.66v-9.82c-76.91,6.92-152.2,18.1-229.73,29.79-197.29,29.7-401.28,60.44-657.76,16.52"/>
    <path class="cls-1" d="M-173.4,917.41c254.67,43.58,457.67,13.03,654.01-16.55,70.61-10.64,150.55-22.69,230.48-29.87l12.69-1.14v33.19l-10.59.95c-78.68,7.12-157.78,19.05-227.57,29.56-198.97,29.96-404.7,60.88-664.58,16.48"/>
  </g>
  <g>
    <path class="cls-1" d="M-344.85,1040.46c58.13,13.93,130.42,31.2,283.75,28.94,168.38-2.58,293.25-23.45,414.01-43.64,112.64-18.84,221.4-37,359.22-39.85v-9.82c-138.49,2.84-247.71,21.08-360.84,39.99-120.4,20.13-244.9,40.95-412.54,43.51-152.07,2.32-223.72-14.86-281.32-28.67"/>
    <path class="cls-1" d="M-339.86,1019.6c56.9,13.66,127.59,30.51,278.43,28.35h0c166.94-2.55,290.91-23.3,410.81-43.35,114.67-19.17,222.98-37.28,362.5-40.15l11.89-.25v33.12l-11.39.23c-137.2,2.82-244.24,20.73-357.57,39.69-121.13,20.26-246.42,41.2-415.73,43.79-9.32.14-18.35.2-27.1.2-136.54,0-204.38-16.23-259.54-29.44"/>
  </g>
  <g>
    <path class="cls-1" d="M-423.55,1122.61c47.25,6.93,92.93,16.15,141.3,25.9,189.41,38.19,404.08,81.49,744.33-26.08,79.83-25.25,165.07-35.7,250.04-39.36v-9.82c-85.83,3.67-172.04,14.22-253.01,39.83-337.81,106.79-541.98,65.65-739.43,25.81-48.49-9.78-94.3-19.02-141.8-25.99"/>
    <path class="cls-1" d="M-420.43,1101.38c47.49,6.98,93.12,16.19,141.43,25.92l.98.2c195.93,39.51,398.54,80.41,733.62-25.51,72.34-22.87,156.1-36.08,256.01-40.38l12.14-.5v33.1l-11.14.5c-96.78,4.16-177.58,16.85-247.03,38.81-161.78,51.15-295.37,68.5-411.38,68.5-129.97,0-237.87-21.76-338.7-42.1-48.27-9.73-93.8-18.89-140.73-25.78"/>
  </g>
  <g>
    <path class="cls-1" d="M-216.17,1249.93c286.2,53.57,450.41,66.67,726.57,9.08,74.17-15.47,140.67-28.99,201.68-40.86v-10c-61.57,11.97-128.72,25.62-203.69,41.26-274.53,57.25-437.93,44.2-722.77-9.1"/>
    <path class="cls-1" d="M-212.23,1228.87h0c283.25,52.97,445.69,65.98,718.23,9.14,75.05-15.64,142.25-29.3,203.86-41.29l13.87-2.68v33.69l-9.41,1.84c-60.97,11.87-127.43,25.37-201.52,40.83-125.45,26.17-227.94,37.85-329.04,37.85-123.06,0-244.08-17.32-402.06-46.9"/>
  </g>
  <g>
    <path class="cls-1" d="M-21.09,1375.84c84.65,18.37,158.05,25.9,223.43,25.9,153.39,0,262.58-41.5,369.23-82.03,52.41-19.92,105.47-39.98,164.11-55.4v-10.21c-59.97,15.62-114.1,36.12-167.59,56.45-157.7,59.93-306.65,116.55-587.09,55.72"/>
    <path class="cls-1" d="M-16.53,1354.89h0c277.04,60.06,424.43,4.09,580.46-55.22,52.77-20.05,107.33-40.81,168.8-56.81l14.57-3.8v34.24l-8.68,2.27c-59.2,15.57-114.31,36.53-162.92,55.04-107.24,40.72-217.93,82.78-373.37,82.78-70.89,0-144.77-8.55-225.91-26.17"/>
  </g>
</svg>