<?xml version="1.0" encoding="UTF-8"?>
<svg id="Livello_1" data-name="Livello 1" xmlns="http://www.w3.org/2000/svg" version="1.1" viewBox="0 0 877 872.95">
  <defs>
    <style>
      .cls-1 {
        fill: #001689;
        stroke-width: 0px;
      }
    </style>
  </defs>
  <g>
    <path class="cls-1" d="M434.96,9.18c-2.08.06-4.18.12-6.26.19-.74,1.16-1.54,2.35-2.41,3.57,3.65-.11,7.32-.21,10.96-.33-.83-1.17-1.59-2.31-2.29-3.43Z"/>
    <path class="cls-1" d="M418.1,17.34l4.81-6.8c.82-1.17,1.59-2.29,2.3-3.41l1.18-1.84,10.82-.33,1.26,2.01c.67,1.06,1.39,2.14,2.18,3.25l4.43,6.3-26.98.83Z"/>
  </g>
  <g>
    <path class="cls-1" d="M449.81,36.58c-11.89.56-24.74,1.16-38.19,1.78-1.02.9-1.88,1.9-2.05,2.81,0,0,.12.29.29.77,15.53-.71,30.24-1.39,43.69-2.03-.88-1.23-2.48-2.47-3.75-3.32Z"/>
    <path class="cls-1" d="M407,46.21l-1.43-3.94-.08-1.87c.32-1.75,1.44-3.44,3.39-5.16l1.09-.96,41-1.91,1.14.75c1.49,1,3.53,2.55,4.82,4.35l4.45,6.2-54.39,2.53Z"/>
  </g>
  <g>
    <path class="cls-1" d="M456.07,70.47c-.33-1.07-.66-2.18-1.01-3.36-10.8,2.69-19.43,5.95-27.82,9.13-7.87,2.98-15.54,5.85-24.52,8.17-.47,1.42-.85,2.78-1.02,3.86,9.95-2.43,18.26-5.53,26.78-8.76,8.31-3.15,16.86-6.38,27.59-9.04Z"/>
    <path class="cls-1" d="M396.62,93.78l.97-6.16c.2-1.26.63-2.85,1.18-4.52l.71-2.15,2.19-.57c8.44-2.18,15.61-4.82,24.09-8.03,8.51-3.22,17.27-6.53,28.3-9.27l3.88-.96,3.39,11.33-4.27,1.05c-10.55,2.61-18.96,5.8-27.11,8.89-9.41,3.58-17.41,6.5-27.27,8.91l-6.06,1.48Z"/>
  </g>
  <g>
    <path class="cls-1" d="M471.55,109.59c.2-1.26.24-2.43.16-3.52-17.62,1.25-35.49,2.97-53.71,5.27-7.78.98-16.03,2.18-24.51,3.45.39,1.23.77,2.36,1.15,3.36,8.24-1.24,16.25-2.39,23.8-3.35,18.01-2.27,35.69-3.97,53.12-5.22Z"/>
    <path class="cls-1" d="M391.95,122.75l-1.19-3.11c-.41-1.07-.82-2.27-1.23-3.59l-1.47-4.63,4.81-.72c8.52-1.29,16.8-2.48,24.61-3.47,17.72-2.23,35.87-4.01,53.94-5.29l4.13-.29.31,4.13c.11,1.45.04,2.95-.19,4.46l-.5,3.28-3.3.24c-17.89,1.28-35.7,3.03-52.9,5.2-7.52.95-15.49,2.1-23.7,3.32l-3.3.49Z"/>
  </g>
  <g>
    <path class="cls-1" d="M503.02,153.55c-1.19-1.07-2.35-2.12-3.51-3.15-7.17.76-14.15,1.65-20.68,2.86-48.43,8.96-92.87,12.99-134.28,14.01-1.36,1.2-2.73,2.41-4.1,3.62,42.74-.84,88.74-4.88,139.02-14.18,7.39-1.37,15.33-2.36,23.55-3.15Z"/>
    <path class="cls-1" d="M329.21,175.25l13.73-12.1,1.51-.04c45.22-1.1,88.93-5.67,133.63-13.94,5.91-1.09,12.58-2.02,21-2.9l1.84-.19,11.87,10.71-9.37.9c-9.04.86-16.62,1.87-23.19,3.09-46.8,8.66-92.49,13.32-139.7,14.25l-11.32.22Z"/>
  </g>
  <g>
    <path class="cls-1" d="M559.53,213.03c3.6,0,7.23-.2,10.85-.31-1.28-1.07-2.58-2.17-3.93-3.32-44.63.87-87.53-6.79-132.02-14.79-33.49-6.03-67.58-12.12-103.91-15-1.23,1.08-2.46,2.16-3.69,3.24,37.47,2.74,72.55,9.01,106.98,15.2,42.37,7.62,83.3,14.98,125.72,14.98Z"/>
    <path class="cls-1" d="M559.53,217.18c-42.74,0-83.34-7.3-126.32-15.02-34-6.12-69.03-12.42-106.68-15.16l-9.87-.72,12.44-10.94,1.74.14c36.99,2.92,71.22,9.09,104.32,15.05,42.61,7.65,86.68,15.57,131.21,14.72l1.57-.03,13.47,11.31-14.08.45c-2.61.1-5.22.19-7.81.19Z"/>
  </g>
  <g>
    <path class="cls-1" d="M845.28,226.6c-1.55.98-3.11,1.96-4.77,2.99,2.94.33,5.86.64,8.82.98,3.09.35,6.3.67,9.43,1.02,1.09-1.05,2.14-2.1,3.14-3.17-4.06-.44-8.19-.87-12.18-1.32-1.49-.17-2.96-.33-4.44-.49Z"/>
    <path class="cls-1" d="M860.24,235.92l-32.09-3.52,16.15-10.09,26.32,2.89-5.69,6.06c-1.05,1.12-2.15,2.22-3.28,3.32l-1.4,1.35Z"/>
  </g>
  <g>
    <path class="cls-1" d="M542.29,255.16c7.28.75,14.62,1.09,22,1.09,22.39,0,45.15-3.15,67.82-7.45-1.92-.82-3.82-1.65-5.72-2.49-28.2,5.12-56.44,8.18-83.75,5.38-2.43-.25-9-1.69-18.95-3.88-40.43-8.89-133.62-29.35-234.04-32.64-1.39,1.19-2.72,2.31-3.96,3.36,101.55,2.87,196.41,23.7,237.25,32.69,10.07,2.21,16.72,3.68,19.35,3.95Z"/>
    <path class="cls-1" d="M564.29,260.4c-7.7,0-15.24-.37-22.42-1.11-2.83-.28-9.01-1.65-19.25-3.89-41.02-9.02-135.72-29.85-237.06-32.72l-10.93-.31,13.53-11.41,1.62.05c101.05,3.32,194.77,23.93,234.79,32.74,9.45,2.08,16.29,3.58,18.49,3.81,23.17,2.34,49.45.67,82.58-5.33l1.24-.23,19.32,8.35-13.32,2.53c-27.04,5.13-48.84,7.52-68.61,7.52Z"/>
  </g>
  <g>
    <path class="cls-1" d="M52.82,246c-2.18-1.06-4.35-2.11-6.45-3.2-9.63.28-19.23.02-28.87-.71,1.84,1.38,3.65,2.68,5.4,3.91,9.98.55,19.93.52,29.92,0Z"/>
    <path class="cls-1" d="M37.68,250.56c-5.08,0-10.09-.14-15.01-.41l-1.18-.06-.96-.67c-1.79-1.26-3.64-2.59-5.52-4.01l-11.33-8.54,14.15,1.08c9.65.75,19.19.98,28.43.71l1.08-.03.96.5c1.86.97,3.79,1.91,5.72,2.85l14.46,7.03-15.44,1.14c-5.16.28-10.28.41-15.36.41Z"/>
  </g>
  <g>
    <path class="cls-1" d="M394.18,266.96c32.61-5.81,66.51-.68,105.77,5.27,33.01,5.01,68.38,10.37,108.56,10.37,34.17,0,71.85-3.92,114.47-15.2-7.7.68-13.77.95-18.78.98-83.19,18.62-146.99,9-203.73.39-39.56-6-73.73-11.18-106.91-5.26-47.35,8.45-77.61,2.98-109.65-2.81-19.26-3.48-38.92-7.02-63.09-7.92-2.74,1.14-5.45,2.25-8.09,3.31,27.71.33,49.37,4.22,70.56,8.05,32.35,5.85,62.92,11.38,110.89,2.81Z"/>
    <path class="cls-1" d="M608.51,286.75c-40.56,0-77.02-5.54-109.19-10.42-38.89-5.89-72.47-10.96-104.42-5.29-48.74,8.69-79.63,3.09-112.36-2.81-20.86-3.77-42.43-7.66-69.87-7.99l-20.95-.24,19.46-7.77c2.63-1.05,5.33-2.16,8.04-3.28l.84-.35.91.03c24.64.92,44.48,4.52,63.67,7.99,31.68,5.72,61.59,11.11,108.19,2.81,33.87-6.04,68.34-.82,108.26,5.24,56.1,8.5,119.68,18.14,202.21-.34l.89-.1c5.35-.02,11.38-.34,18.43-.96l1.43,8.15c-38.99,10.31-76.78,15.33-115.53,15.33Z"/>
  </g>
  <g>
    <path class="cls-1" d="M798.69,251.52c-3.41,1.42-6.89,2.74-10.43,3.98,13.95-1.09,26.52-.99,38.22-.14,1.08-.66,2.76-1.69,4.88-3.03-10.1-.9-20.92-1.25-32.67-.81Z"/>
    <path class="cls-1" d="M756.74,262.14l30.15-10.56c3.47-1.22,6.87-2.51,10.21-3.9l1.44-.32c11.29-.4,22.13-.15,33.18.83l12.27,1.09-16.05,10.05-1.77.17c-12.53-.92-24.82-.86-37.6.13l-31.85,2.51Z"/>
  </g>
  <g>
    <path class="cls-1" d="M103.65,262.72c-22.54,2.24-43.74,3.73-63.74,4.47.1,1.05.25,2.22.45,3.48,23.89-.89,49.51-2.87,77.01-5.89-4.24-.62-8.73-1.29-13.72-2.06Z"/>
    <path class="cls-1" d="M36.85,274.96l-.58-3.62c-.22-1.36-.39-2.63-.49-3.76l-.41-4.36,4.39-.17c19.84-.74,41.2-2.24,63.48-4.44l.53-.06.51.08c4.99.76,9.47,1.43,13.69,2.04l32.19,4.69-32.33,3.55c-27.67,3.03-53.68,5.03-77.31,5.92l-3.66.14Z"/>
  </g>
  <g>
    <path class="cls-1" d="M506.56,313.72c-44.12,8.01-93.08-1.93-140.44-11.55-39-7.92-79.32-16.1-115.46-13.6-76.72,5.31-143.33,8.17-201.45,8.56.54,1.19,1.07,2.35,1.59,3.47,57.84-.43,124-3.28,200.09-8.55,35.67-2.48,73.97,5.31,114.52,13.54,35.38,7.18,71.65,14.55,106.3,14.54,12.05,0,23.91-.89,35.45-2.99,144.44-26.25,232.88-23.69,306.13-17.34.5-1.08,1.01-2.22,1.52-3.36-71.9-6.21-163.46-9.05-308.28,17.26Z"/>
    <path class="cls-1" d="M471.68,324.3c-35.07,0-71.67-7.43-107.08-14.62-40.29-8.18-78.37-15.92-113.39-13.47-77.05,5.33-142.58,8.12-200.36,8.55l-2.67.02-5.37-11.75,6.39-.04c57.96-.4,123.77-3.19,201.18-8.55,36.72-2.53,77.31,5.7,116.56,13.67,46.96,9.53,95.51,19.42,138.88,11.53,144.75-26.29,237.62-23.53,309.37-17.31l5.81.5-5.15,11.38-2.9-.25c-73.8-6.41-161.81-8.74-305.03,17.29-11.29,2.05-23.14,3.05-36.2,3.05h-.06Z"/>
  </g>
  <g>
    <path class="cls-1" d="M727.49,313.64c-22.6,2.82-44.66,6.83-66,10.71-42.45,7.72-82.55,15.05-127.33,13.91-85.13-2.09-130.31-11.08-166.61-18.3-47.13-9.37-81.18-16.14-169.89-2.44-31.5,4.87-75.55,11.63-126.6,14.52,1.18,1.17,2.39,2.27,3.62,3.3,49.74-3.01,92.63-9.6,123.51-14.37,88.1-13.61,121.9-6.89,168.67,2.41,36.43,7.25,81.78,16.27,167.21,18.37,3.08.08,6.13.11,9.17.11,41.47,0,79.15-6.86,118.87-14.09,21.29-3.87,43.3-7.88,65.8-10.68,26.93-3.35,50.94-1.25,74.62,2.68.67-1.03,1.34-2.09,2.02-3.21-24.41-4.14-49.15-6.43-77.07-2.94Z"/>
    <path class="cls-1" d="M543.25,346.03c-3.07,0-6.15-.04-9.27-.11-85.82-2.12-131.34-11.17-167.93-18.45-46.41-9.21-79.9-15.87-167.23-2.38-29.24,4.52-73.44,11.36-123.89,14.41l-1.65.1-1.26-1.05c-1.31-1.1-2.59-2.28-3.87-3.52l-6.71-6.58,9.38-.54c51.48-2.93,96.44-9.88,126.2-14.49,89.42-13.82,123.77-6.97,171.32,2.46,36.14,7.2,81.12,16.14,165.93,18.23,44.1,1.21,83.89-6.1,125.95-13.75,21.9-3.99,44.01-8.01,66.75-10.84h0c30.82-3.86,56.87-.67,78.27,2.96l6.01,1.02-3.14,5.21c-.7,1.16-1.4,2.27-2.09,3.33l-1.48,2.28-2.68-.45c-18.91-3.15-44.35-6.28-73.43-2.66-22.42,2.8-44.36,6.79-65.57,10.65-40.05,7.28-77.8,14.15-119.61,14.15Z"/>
  </g>
  <g>
    <path class="cls-1" d="M677.9,360.54c-89.55,45-148.7,24.75-205.91,5.16-43.6-14.93-88.7-30.36-146.63-16.96-9.15,2.12-17.85,4.21-26.23,6.24-53.3,12.87-92.53,22.29-151.47,13.83l.2,3.57c59.2,8.37,98.6-1.09,152.09-14.01,8.37-2.02,17.06-4.12,26.19-6.23,56.97-13.19,101.57,2.09,144.71,16.86,32.12,11,64.84,22.2,103.13,22.2,30.72,0,65.04-7.22,105.49-27.55,41.96-21.09,67.47-24.32,98.96-21.11,1.71-.96,3.36-1.94,4.94-2.98-34.27-4.08-60.6-1.58-105.47,20.97Z"/>
    <path class="cls-1" d="M573.99,395.36c-38.97,0-72.26-11.4-104.45-22.42-42.61-14.59-86.61-29.66-142.46-16.75-9.11,2.11-17.79,4.2-26.14,6.23-54.3,13.11-93.54,22.57-153.66,14.07l-3.36-.48-.69-12.03,5.03.72c58.32,8.39,96.72-.92,149.9-13.76,8.39-2.03,17.11-4.13,26.27-6.25,59.09-13.67,104.74,1.96,148.91,17.08,56.38,19.3,114.69,39.28,202.71-4.95h0c46.27-23.26,73.59-25.47,107.82-21.38l11.25,1.34-9.45,6.24c-1.66,1.1-3.41,2.14-5.21,3.15l-1.14.64-1.31-.14c-29.2-2.94-54.41-.55-96.68,20.69-37.47,18.83-72.59,27.99-107.35,27.99Z"/>
  </g>
  <g>
    <path class="cls-1" d="M607.1,404.65c-105.59,24.86-170.83,9.9-233.78-9.06-43.5-13.11-84.38-8.8-131.73-3.83-28.27,2.97-58.65,6.14-92.63,5.74v3.5c34.13.39,64.61-2.79,92.99-5.76,46.96-4.94,87.53-9.2,130.35,3.71,39.6,11.92,80.1,22.28,130.84,22.28,30.53,0,64.77-3.75,104.75-13.16,19.28-4.54,38.17-10.32,56.44-15.9,17.28-5.28,34.23-10.44,51.28-14.59l.2-3.65c-17.47,4.22-34.82,9.5-52.5,14.9-18.21,5.57-37.05,11.33-56.22,15.84Z"/>
    <path class="cls-1" d="M503.15,425.36c-53.04,0-95.96-11.59-132.04-22.46-42.04-12.66-82.21-8.43-128.71-3.55-27.64,2.9-58.97,6.19-93.48,5.79l-4.1-.05v-11.8l4.2.05c33.9.49,64.83-2.85,92.14-5.72,47.8-5.03,89.06-9.36,133.36,3.99,62.37,18.79,127.04,33.61,231.64,9h0c18.87-4.44,37.47-10.13,55.46-15.62,17.59-5.38,35.28-10.78,53.23-15.11l5.42-1.31-.68,12.29-2.99.73c-17.3,4.22-34.46,9.46-51.05,14.54-18.3,5.59-37.22,11.38-56.7,15.96-37.93,8.93-72.51,13.27-105.71,13.27Z"/>
  </g>
  <g>
    <path class="cls-1" d="M409.68,444.47c-132.41-22.78-198.8-14.05-257.38-6.36-1.12.15-2.21.29-3.32.43v3.52c1.26-.17,2.51-.33,3.78-.49,58.33-7.66,124.44-16.35,256.34,6.34,31.13,5.35,58.66,7.58,83.58,7.57,61.6,0,107.28-13.54,151.87-26.77,23.19-6.87,45.9-13.6,70.27-18.28v-3.58c-24.73,4.72-47.75,11.55-71.26,18.52-62.25,18.46-126.63,37.54-233.87,19.11Z"/>
    <path class="cls-1" d="M492.67,459.63c-26.84,0-54.41-2.5-84.3-7.63-131.21-22.58-196.98-13.95-255.01-6.33l-8.55,1.11v-11.89l6.94-.91c58.95-7.73,125.66-16.47,258.62,6.38h0c106.32,18.31,170.2-.66,231.99-18.99,22.92-6.79,46.62-13.82,71.66-18.62l4.93-.94v12.03l-3.36.65c-24.33,4.68-47.48,11.55-69.86,18.19-44.7,13.25-90.88,26.94-153.06,26.94Z"/>
  </g>
  <g>
    <path class="cls-1" d="M546.94,478.23c-122.55-9.17-176.52-3.77-219.87.57-40.8,4.09-73.03,7.32-145.79-4.04-11.32-1.77-21.99-2.94-32.31-3.8v3.51c10.16.85,20.65,2,31.77,3.74,37.58,5.87,64.41,7.87,87.18,7.87,21.58,0,39.52-1.8,59.49-3.8,43.22-4.34,97.01-9.72,219.27-.57,58.13,4.36,89.45-5.38,122.61-15.68,14.26-4.43,28.69-8.9,45.5-12.44v-3.49c-17.63,3.61-32.38,8.19-46.54,12.59-32.83,10.19-63.83,19.84-121.32,15.53Z"/>
    <path class="cls-1" d="M267.93,490.23c-25.3,0-53.2-2.51-87.82-7.91-9.9-1.55-20.19-2.76-31.47-3.71l-3.79-.32-.02-11.85,4.5.38c11.57.96,22.24,2.21,32.62,3.83,72.23,11.28,104.23,8.07,144.73,4.02,43.51-4.37,97.66-9.77,220.59-.59h0c56.65,4.23,87.25-5.25,119.68-15.32,14.5-4.5,29.26-9.08,47.03-12.73l4.99-1.02v11.94l-3.29.7c-16.9,3.57-31.26,8.03-45.13,12.35-33.59,10.42-65.27,20.2-124.15,15.85-122-9.14-175.52-3.77-218.54.55-19.57,1.96-38.06,3.82-59.91,3.82Z"/>
  </g>
  <g>
    <path class="cls-1" d="M570.48,505.51c-56.88-16.6-127.86-5.21-196.5,5.8-65.48,10.51-127.33,20.43-172.97,6-11.65-3.69-22-8.64-32.01-13.43-6.68-3.2-13.27-6.28-20.03-8.96v3.77c6.23,2.52,12.33,5.38,18.52,8.34,10.12,4.84,20.57,9.85,32.46,13.61,16.78,5.3,35.62,7.39,55.95,7.39,35.94,0,76.54-6.51,118.62-13.26,68.26-10.95,138.85-22.28,194.97-5.9,30.57,8.92,72.75-.83,113.54-10.27,10.57-2.44,21.22-4.87,31.75-7.03v-3.57c-10.8,2.2-21.71,4.69-32.54,7.19-40.35,9.33-82.07,18.99-111.77,10.32Z"/>
    <path class="cls-1" d="M255.9,532.18c-22.35,0-41.06-2.48-57.2-7.58-12.25-3.88-22.8-8.93-33-13.82-5.51-2.63-11.91-5.66-18.28-8.24l-2.59-1.05v-12.68l5.68,2.25c7.05,2.8,13.89,6.02,20.29,9.07,9.88,4.73,20.08,9.62,31.47,13.22,44.73,14.13,106.08,4.29,171.06-6.15,69.1-11.08,140.55-22.53,198.32-5.68h0c28.6,8.36,69.77-1.14,109.55-10.35,10.98-2.54,21.93-5.03,32.76-7.25l4.99-1.01v12.05l-3.32.68c-10.5,2.15-21.11,4.56-31.65,7-41.29,9.55-84,19.43-115.63,10.22-55.24-16.14-125.34-4.87-193.15,6-42.69,6.85-82.99,13.32-119.29,13.32Z"/>
  </g>
  <g>
    <path class="cls-1" d="M578.71,541.56c-11.38-1.17-23.16-2.63-34.55-4.03-56.85-7.03-115.63-14.28-171.92,5.22-74.41,25.78-145.64,14.89-211.53-.73-4.01-.95-7.84-1.63-11.72-2.39v3.57c3.62.71,7.19,1.34,10.91,2.22,37.59,8.9,76.89,16.28,117.59,16.28,31.2,0,63.23-4.34,95.89-15.65,55.54-19.24,113.91-12.03,170.35-5.06,11.41,1.41,23.21,2.86,34.62,4.04,32.31,3.34,68.18-3.98,102.86-11.07,11.14-2.27,22.39-4.53,33.58-6.48v-3.55c-11.43,1.98-22.91,4.28-34.28,6.6-34.42,7.03-70.02,14.3-101.8,11.01Z"/>
    <path class="cls-1" d="M277.49,565.87c-43.51,0-84.34-8.29-118.55-16.4-2.7-.64-5.32-1.14-7.93-1.64l-6.18-1.21v-12.02l7.47,1.44c3.08.59,6.16,1.18,9.36,1.94,65.27,15.47,135.79,26.3,209.21.84,57.26-19.82,116.51-12.49,173.8-5.42,11.37,1.4,23.11,2.85,34.47,4.03h0c31.13,3.22,66.38-3.97,100.45-10.95,11.5-2.34,23.02-4.65,34.49-6.64l4.86-.84v11.98l-3.44.59c-11.15,1.95-22.36,4.19-33.46,6.46-35.04,7.15-71.18,14.55-104.12,11.12-11.43-1.18-23.26-2.63-34.7-4.05-55.98-6.92-113.87-14.07-168.48,4.86-30.87,10.69-62.68,15.88-97.25,15.88Z"/>
  </g>
  <g>
    <path class="cls-1" d="M555.61,572.45c-17.32-1.88-35.24-3.81-55.2-5.1-31.83-2.08-64.69,4.27-96.47,10.39-39.23,7.55-79.8,15.36-118,7.12-59.01-12.75-102.26-18.34-136.95-19.9v3.52c34.5,1.55,77.51,7.12,136.21,19.79,11.88,2.57,23.95,3.61,36.11,3.61,27.66,0,55.8-5.42,83.29-10.71,31.57-6.08,64.19-12.36,95.58-10.33,19.89,1.29,37.76,3.22,55.05,5.09,46.52,5.04,86.69,9.38,135.8-3.35,7.92-2.05,15.83-3.89,23.74-5.58v-3.6c-8.2,1.73-16.4,3.66-24.62,5.79-48.5,12.58-88.38,8.26-134.55,3.27Z"/>
    <path class="cls-1" d="M321.31,596.04c-13.35,0-25.44-1.22-36.98-3.71-53.57-11.56-97.9-18.01-135.52-19.71l-3.96-.18-.02-11.82,4.35.2c38.31,1.72,83.33,8.25,137.64,19.99,37.38,8.08,77.53.33,116.34-7.14,32.26-6.2,65.28-12.58,97.53-10.45,20.01,1.29,37.94,3.23,55.27,5.11l.16.02c45.76,4.95,85.28,9.22,133-3.17,8.31-2.15,16.65-4.1,24.82-5.82l5-1.05v12.06l-3.28.71c-7.86,1.67-15.71,3.5-23.58,5.54-49.85,12.93-90.38,8.54-137.29,3.46-17.65-1.91-35.29-3.81-54.86-5.08-30.89-1.98-63.24,4.25-94.54,10.27-27.53,5.3-55.99,10.78-84.08,10.78Z"/>
  </g>
  <g>
    <path class="cls-1" d="M521.77,602.36c-22.29-4.3-43.96.04-73.95,6.03-55.31,11.06-137.51,27.44-298.82,3.31v3.56c61.1,9.12,110.87,12.44,152.15,12.44,67.91,0,112.83-8.98,147.35-15.88,29.6-5.92,50.98-10.19,72.6-6.03,83.33,16.06,113.23,12.64,193.66-1.49v-3.55c-80.39,14.12-110.1,17.58-193,1.61Z"/>
    <path class="cls-1" d="M301,631.85c-45.79,0-97.14-4.2-152.62-12.49l-3.53-.53v-11.94l4.77.71c160.71,24.02,242.97,7.59,297.39-3.28,30.5-6.1,52.48-10.5,75.55-6.04h0c82.99,16,112.06,12.33,191.5-1.61l4.87-.86v11.98l-3.43.6c-78.85,13.86-110.42,17.82-195.17,1.48-20.86-4.04-41.88.19-71.01,6.02-33.69,6.74-79.83,15.96-148.17,15.96h-.15Z"/>
  </g>
  <g>
    <path class="cls-1" d="M692.88,636.26c-26.51-2.64-56.95,3.98-86.42,10.37-38.95,8.45-79.22,17.18-111.92,5.43-44.16-15.88-99.89-8.32-158.9-.32-59.94,8.13-121.93,16.52-175.27.3-3.8-1.16-7.59-2.18-11.38-3.13v3.59c3.45.88,6.9,1.83,10.36,2.88,22.67,6.9,46.78,9.42,71.6,9.42,34.39,0,70.12-4.84,105.16-9.6,58.57-7.94,113.88-15.44,157.24.14,33.63,12.1,74.41,3.25,113.84-5.3,29.21-6.33,59.4-12.86,85.33-10.31,7.63.76,14.99.99,22.23,1.02v-3.51c-7.13-.02-14.38-.25-21.88-.99Z"/>
    <path class="cls-1" d="M230.96,668.94c-27.78,0-51.59-3.14-72.81-9.6-3.41-1.04-6.79-1.96-10.18-2.83l-3.12-.8v-12.13l5.16,1.29c3.86.96,7.72,2.01,11.59,3.19,52.44,15.96,113.99,7.63,173.5-.43,59.61-8.08,115.79-15.68,160.86.52,31.6,11.36,71.27,2.75,109.63-5.57,29.88-6.48,60.56-13.18,87.72-10.44h0c6.41.63,13.24.95,21.49.97l4.13.02v11.8l-4.17-.02c-8.61-.03-15.8-.36-22.62-1.05-25.29-2.49-55.17,3.97-84.04,10.23-40,8.68-81.38,17.65-116.13,5.16-42.39-15.24-97.22-7.81-155.25.06-34.94,4.73-71.03,9.63-105.74,9.63Z"/>
  </g>
  <g>
    <path class="cls-1" d="M398.26,683.65c-61.16-10.47-110.63-3.87-162.99,3.14-27.57,3.68-55.62,7.41-86.26,8.79v3.48c30.81-1.38,59.02-5.11,86.72-8.8,52.1-6.96,101.31-13.54,161.94-3.16,92.02,15.75,165.06,4.75,235.68-5.89,27.49-4.14,54.17-8.11,81.41-10.58v-3.5c-27.43,2.47-54.28,6.46-81.93,10.62-70.36,10.59-143.11,21.55-234.57,5.89Z"/>
    <path class="cls-1" d="M144.86,703.4v-11.78l3.96-.18c30.64-1.38,58.73-5.13,85.89-8.76,52.68-7.05,102.46-13.69,164.24-3.12,90.82,15.54,163.22,4.65,233.23-5.9,25.18-3.79,53.69-8.09,82.2-10.65l4.52-.41v11.84l-3.78.34c-28.06,2.54-56.27,6.79-81.16,10.54-70.96,10.69-144.32,21.71-237,5.88-59.96-10.27-108.85-3.75-160.58,3.16-26.2,3.49-55.78,7.44-87.19,8.85l-4.34.19Z"/>
  </g>
  <g>
    <path class="cls-1" d="M438.95,730.27c-54.23.83-79.78-5.3-100.32-10.22-22.67-5.44-39.05-9.36-79.69-1.91-40.79,7.49-76.27,7.17-109.92,5.19v3.5c33.8,1.98,69.45,2.28,110.55-5.26,39.9-7.32,55.98-3.47,78.25,1.87,20.73,4.97,46.51,11.13,101.19,10.32,60.05-.92,104.58-8.36,147.64-15.56,40.17-6.72,78.96-13.19,128.1-14.21v-3.5c-49.39,1.01-88.34,7.52-128.68,14.26-42.94,7.18-87.34,14.6-147.12,15.52Z"/>
    <path class="cls-1" d="M429.41,737.98c-48.69,0-72.89-5.79-92.56-10.5-21.77-5.22-37.5-8.99-76.54-1.82-43.12,7.91-80.58,7.13-111.54,5.31l-3.91-.23v-11.82l4.39.26c30.33,1.79,66.98,2.58,108.93-5.14,41.5-7.6,58.25-3.6,81.4,1.96,20.29,4.87,45.5,10.88,99.29,10.11h0c59.53-.91,103.75-8.31,146.51-15.46,40.9-6.83,79.52-13.3,129.28-14.32l4.24-.09v11.81l-4.06.08c-48.93,1.01-87.1,7.39-127.52,14.16-43.2,7.22-87.88,14.69-148.26,15.62-3.32.05-6.54.07-9.66.07Z"/>
  </g>
  <g>
    <path class="cls-1" d="M360.82,758.55c-17.29-3.49-33.63-6.78-50.57-9.27-44.71-6.56-86.64,2.37-127.18,11.01-11.24,2.39-22.58,4.8-34.05,6.9v3.56c11.72-2.14,23.3-4.6,34.78-7.04,40.24-8.57,81.87-17.44,125.94-10.97,16.85,2.47,33.14,5.76,50.39,9.24,67.55,13.62,144.1,29.06,265.44-9.3,28.47-9.01,58.87-12.73,89.17-14.04v-3.5c-30.61,1.31-61.35,5.07-90.23,14.21-120.47,38.08-193.28,23.41-263.7,9.2Z"/>
    <path class="cls-1" d="M480.12,781.06c-46.35,0-84.83-7.76-120.79-15.02-17.21-3.47-33.45-6.74-50.19-9.19-43.32-6.37-84.56,2.42-124.44,10.91-11.79,2.51-23.29,4.95-34.94,7.08l-4.9.89v-12.01l3.41-.62c11.43-2.09,22.73-4.49,33.93-6.88,40.89-8.72,83.17-17.7,128.64-11.06,16.94,2.49,33.21,5.77,50.44,9.24l.35.07c69.87,14.09,142.13,28.68,261.63-9.1,25.8-8.16,55.67-12.87,91.3-14.4l4.33-.18v11.8l-3.97.18c-34.51,1.48-63.33,6.01-88.1,13.84-57.69,18.24-105.33,24.43-146.71,24.43Z"/>
  </g>
  <g>
    <path class="cls-1" d="M125.61,795.92c-7.05,1.15-14.03,2.31-20.9,3.47v3.54c14.05-2.36,28.45-4.78,43.36-7.01h-22.46Z"/>
    <path class="cls-1" d="M100.56,807.84v-11.96l3.46-.58c6.88-1.16,13.86-2.32,20.93-3.47l.66-.06h22.46l.62,8.25c-14.88,2.23-29.25,4.64-43.29,7.01l-4.84.81Z"/>
  </g>
  <g>
    <path class="cls-1" d="M384.34,794.71c-96.14-17.99-170.47-12.1-235.31-2.47v3.53c64.68-9.63,138.83-15.56,234.67,2.36,102.07,19.11,160.63,23.78,259.11,3.24,26.45-5.52,50.17-10.34,71.92-14.57v-3.57c-21.96,4.27-45.91,9.14-72.64,14.71-97.9,20.42-156.17,15.76-257.76-3.25Z"/>
    <path class="cls-1" d="M526.33,818.95c-43.89,0-87.04-6.18-143.38-16.73-97.28-18.19-172.52-11.38-233.3-2.34l-4.75.71-.02-11.93,3.55-.53c61.57-9.16,137.85-16.02,236.69,2.49h0c101.01,18.89,158.94,23.53,256.14,3.26,26.76-5.58,50.73-10.45,72.7-14.72l4.95-.96v12.02l-3.36.66c-21.74,4.23-45.44,9.05-71.87,14.56-44.74,9.33-81.29,13.5-117.34,13.5Z"/>
  </g>
  <g>
    <path class="cls-1" d="M489.92,839.03c-169.06-36.68-288.67-29.56-385.21-18.53v3.52c96.35-11.02,215.72-18.18,384.46,18.43,30.19,6.55,56.36,9.24,79.68,9.24,54.7,0,93.64-14.8,131.67-29.25,18.69-7.11,37.61-14.26,58.52-19.76v-3.64c-21.39,5.57-40.69,12.88-59.77,20.13-56.24,21.37-109.36,41.57-209.37,19.87Z"/>
    <path class="cls-1" d="M568.86,855.83c-25.28,0-51.63-3.05-80.57-9.33-164.93-35.78-281.59-29.98-383.11-18.36l-4.62.53v-11.87l3.68-.42c102.36-11.68,220.02-17.52,386.57,18.6h0c98.8,21.42,151.36,1.46,207.01-19.69,18.82-7.15,38.28-14.55,60.2-20.26l5.2-1.35v12.21l-3.1.81c-21.11,5.55-40.77,13.03-58.1,19.63-38.24,14.52-77.72,29.52-133.15,29.52Z"/>
  </g>
  <g>
    <path class="cls-1" d="M633.22,868.8h22.15c38.22-6.58,72.97-14.69,104.16-22.01,16.26-3.81,31.59-7.36,46.19-10.45v-3.57c-14.85,3.13-30.44,6.74-46.99,10.62-36.89,8.65-78.77,18.41-125.51,25.41Z"/>
    <path class="cls-1" d="M633.22,872.95l-.62-8.25c47.28-7.08,90.48-17.21,125.18-25.34,16.58-3.89,32.2-7.5,47.08-10.65l5.01-1.05v12.05l-3.29.7c-14.57,3.09-29.88,6.62-46.11,10.43-30.73,7.21-65.55,15.37-104.4,22.06l-22.86.06Z"/>
  </g>
  <g>
    <path class="cls-1" d="M144.57,865.23c-3.94,1.21-7.87,2.4-11.79,3.57h12.06c.25-.08.51-.15.76-.23,48.21-14.77,98.06-30.04,191.48-7.67,12.67,3.03,25.09,5.6,37.36,7.9h20.7c-18.65-2.98-37.67-6.61-57.25-11.3-94.36-22.6-146.93-6.49-193.32,7.73Z"/>
    <path class="cls-1" d="M395.13,872.95h-20.69c-14.47-2.64-26.76-5.24-38.34-8.02-92.31-22.11-141.62-7.02-189.3,7.61l-1.97.41h-40.44l27.19-8.13c3.92-1.17,7.84-2.36,11.77-3.57h.02c46.89-14.37,100.06-30.63,195.48-7.78,18.09,4.33,36.71,8,56.94,11.23l-.66,8.25Z"/>
  </g>
</svg>