<svg xmlns="http://www.w3.org/2000/svg" width="28.359" height="17" viewBox="0 0 28.359 17">
  <path id="Reservation" d="M24.033,17H4.319a1.125,1.125,0,0,1,0-2.25h8.736v-.973H5.162a.667.667,0,0,1-.662-.67v-.033A9.419,9.419,0,0,1,5.27,9.339,9.782,9.782,0,0,1,7.354,6.268a9.626,9.626,0,0,1,6.151-2.83V2.145H12.393a.672.672,0,0,1-.679-.662A.68.68,0,0,1,12.393.8h3.574a.68.68,0,0,1,.679.679.672.672,0,0,1-.679.662H14.846V3.437a9.767,9.767,0,0,1,9.031,9.67.68.68,0,0,1-.687.67H15.3v.973h8.728a1.125,1.125,0,0,1,0,2.25ZM14.176,4.763a8.392,8.392,0,0,0-8.3,7.656H22.486a8.39,8.39,0,0,0-8.31-7.656ZM24.578,10a.664.664,0,0,1-.627-.451.671.671,0,0,1,.41-.851l3.109-1.1a.64.64,0,0,1,.217-.038.675.675,0,0,1,.634.455.683.683,0,0,1-.418.868L24.8,9.957A.611.611,0,0,1,24.578,10ZM3.788,10a.669.669,0,0,1-.23-.042L.458,8.886a.683.683,0,0,1-.418-.868.673.673,0,0,1,.631-.455.666.666,0,0,1,.22.038l3.1,1.1a.674.674,0,0,1,.418.851A.664.664,0,0,1,3.788,10Zm18.9-3.258a.654.654,0,0,1-.522-.252.682.682,0,0,1,.114-.949l2.536-2.077a.652.652,0,0,1,.413-.148.674.674,0,0,1,.527.254.651.651,0,0,1-.1.941L23.125,6.587A.7.7,0,0,1,22.69,6.741Zm-17.019,0a.653.653,0,0,1-.419-.154L2.691,4.509a.631.631,0,0,1-.239-.441.7.7,0,0,1,.141-.5.675.675,0,0,1,.528-.254.734.734,0,0,1,.437.148L6.086,5.54A.684.684,0,0,1,6.34,6a.656.656,0,0,1-.148.485A.666.666,0,0,1,5.671,6.741ZM19.645,4.194a.687.687,0,0,1-.332-.086.676.676,0,0,1-.246-.916L20.679.329A.675.675,0,0,1,21.27,0,.7.7,0,0,1,21.6.084.676.676,0,0,1,21.857,1l-1.62,2.855A.677.677,0,0,1,19.645,4.194Zm-10.931,0a.7.7,0,0,1-.592-.339L6.5,1A.64.64,0,0,1,6.432.5.664.664,0,0,1,6.764.084.678.678,0,0,1,7.093,0a.641.641,0,0,1,.571.329L9.293,3.192a.681.681,0,0,1,.065.525.637.637,0,0,1-.311.391A.694.694,0,0,1,8.715,4.194Z" transform="translate(0)" fill="#88a8ff"/>
</svg>
