<svg xmlns="http://www.w3.org/2000/svg" width="19.2" height="18" viewBox="0 0 19.2 18">
  <path id="Rooms" d="M16.177,18H13.906a.594.594,0,0,1-.6-.591V16.066H5.9v1.343a.6.6,0,0,1-.6.591H3.022a.6.6,0,0,1-.61-.591V16.066h-1.4a1.038,1.038,0,0,1-.721-.293A1.006,1.006,0,0,1,0,15.065V8.736a.949.949,0,0,1,.228-.621.979.979,0,0,1,.53-.357l0-.021c.029-.317.057-.6.094-.906.025-.259.064-.529.125-.877.029-.213.057-.423.1-.649l0-.033,0-.024a5.541,5.541,0,0,0,.058-.556,9.159,9.159,0,0,0-.007-1.964A7.78,7.78,0,0,0,.61.823.7.7,0,0,1,.566.574.607.607,0,0,1,.986.027.685.685,0,0,1,1.174,0a.616.616,0,0,1,.275.064c.112.053.231.108.4.182l.007,0,.1.03.04.012c.117.036.215.066.319.088a9.634,9.634,0,0,0,1.9.329c.281.028.568.042.855.042A10.433,10.433,0,0,0,6.125.691c.369-.044.73-.1,1.129-.166A14.667,14.667,0,0,1,9.6.275a14.8,14.8,0,0,1,2.357.25L12,.533l.041.006c.326.052.7.11,1.052.152a10.011,10.011,0,0,0,1.059.058A10.371,10.371,0,0,0,16.891.377c.12-.026.227-.058.335-.092L17.243.28,17.27.272l.021-.006.064-.02L17.436.21,17.448.2l.059-.027c.086-.039.167-.075.244-.114A.646.646,0,0,1,18.029,0a.639.639,0,0,1,.185.027.624.624,0,0,1,.361.3.492.492,0,0,1,.059.247.7.7,0,0,1-.044.248,7.959,7.959,0,0,0-.515,1.905,11.759,11.759,0,0,0-.022,1.964c.014.1.028.205.041.308s.026.2.04.306c.027.208.059.427.1.649.009.062.019.124.029.186.033.211.071.45.089.691l.005.045c.034.284.069.588.09.882a1.1,1.1,0,0,1,.552.357,1.076,1.076,0,0,1,.205.621v6.329a.981.981,0,0,1-.293.708,1.033,1.033,0,0,1-.714.293h-1.4v1.343A.6.6,0,0,1,16.177,18Zm-1.661-1.934V16.8h1.057v-.737H14.516Zm-10.891,0V16.8H4.691v-.737H3.625Zm-1.6-6.33v4.322H17.177V9.736Zm2.6-4.125h9.949a1.1,1.1,0,0,1,.471.1,1.406,1.406,0,0,1,.39.24l.023.023.029.022a1.726,1.726,0,0,1,.28.4,1.37,1.37,0,0,1,.1.5v.715l-.007.058v.066h1.367l-.011-.1c-.023-.227-.05-.485-.069-.715-.022-.2-.051-.4-.08-.587-.011-.07-.021-.139-.031-.208-.025-.145-.043-.291-.06-.431-.009-.073-.018-.145-.028-.219-.007-.052-.015-.1-.023-.158-.024-.165-.049-.336-.065-.506a11.943,11.943,0,0,1-.037-1.628,7.644,7.644,0,0,1,.25-1.606,12.313,12.313,0,0,1-2.037.343c-.277.02-.562.031-.846.031-.4,0-.814-.02-1.235-.06-.339-.042-.678-.1-1.037-.154A14.558,14.558,0,0,0,9.6,1.487a14.677,14.677,0,0,0-2.306.248c-.358.058-.7.112-1.033.154a11.061,11.061,0,0,1-1.174.062,11.717,11.717,0,0,1-2.936-.375A8.608,8.608,0,0,1,2.39,3.181a11.963,11.963,0,0,1-.044,1.628c-.021.224-.051.452-.08.664-.013.13-.035.26-.055.386-.014.087-.029.176-.041.264-.036.252-.065.51-.1.8-.038.223-.07.487-.1.81H3.353V6.89a1.2,1.2,0,0,1,.088-.5,1.745,1.745,0,0,1,.279-.4l.023-.022.022-.023a1.722,1.722,0,0,1,.4-.24A1.14,1.14,0,0,1,4.625,5.611ZM4.611,6.817a.028.028,0,0,0-.014,0,.029.029,0,0,1-.015,0v.014a.027.027,0,0,0-.007.022c-.014.014-.014.014-.014.03v.715a.043.043,0,0,0,.014.029.017.017,0,0,0,0,.013l0,.008c.008.005.015.01.015.016a.075.075,0,0,1,.029.007h9.949l.023-.007.012-.008a.021.021,0,0,1,.017-.007V7.648l.015-.014V6.86s0-.007-.007-.011-.008-.007-.008-.011l-.014-.007V6.824L14.6,6.817H4.611Z" fill="#88a8ff"/>
</svg>
